<?xml version="1.0" encoding="UTF-8" standalone="no"?>
<!-- Created with Inkscape (http://www.inkscape.org/) -->

<svg
   width="210mm"
   height="297mm"
   viewBox="0 0 210 297"
   version="1.1"
   id="svg1"
   xml:space="preserve"
   inkscape:version="1.3 (0e150ed6c4, 2023-07-21)"
   sodipodi:docname="logov1.svg"
   xmlns:inkscape="http://www.inkscape.org/namespaces/inkscape"
   xmlns:sodipodi="http://sodipodi.sourceforge.net/DTD/sodipodi-0.dtd"
   xmlns="http://www.w3.org/2000/svg"
   xmlns:svg="http://www.w3.org/2000/svg"><sodipodi:namedview
     id="namedview1"
     pagecolor="#ffffff"
     bordercolor="#000000"
     borderopacity="0.25"
     inkscape:showpageshadow="2"
     inkscape:pageopacity="0.0"
     inkscape:pagecheckerboard="0"
     inkscape:deskcolor="#d1d1d1"
     inkscape:document-units="mm"
     inkscape:zoom="0.54236816"
     inkscape:cx="207.42368"
     inkscape:cy="637.02117"
     inkscape:window-width="1920"
     inkscape:window-height="1057"
     inkscape:window-x="-8"
     inkscape:window-y="-8"
     inkscape:window-maximized="1"
     inkscape:current-layer="layer2" /><defs
     id="defs1" /><g
     inkscape:groupmode="layer"
     id="layer2"
     inkscape:label="Layer 2"><ellipse
       style="fill:#00a6fb;stroke-width:1.647;paint-order:stroke fill markers;stroke-dasharray:none;fill-opacity:1"
       id="path3"
       cx="105.037"
       cy="276.30313"
       rx="76.5"
       ry="13.452962" /></g><g
     inkscape:label="Layer 1"
     inkscape:groupmode="layer"
     id="layer1"><g
       style="fill:#000000"
       id="g3"
       transform="matrix(0.51238726,0,0,0.51238726,-0.7964908,42.666924)"><path
         style="fill:#00a6fb;stroke-width:6.21354337;stroke-dasharray:none;paint-order:stroke fill markers;fill-opacity:1;stroke:none"
         d="M 376.65566,957.1111 C 366.32875,953.74317 354.21373,946.47108 348.18959,940.02422 342.92343,934.38855 156.20493,612.19218 142.84878,585.69371 98.799225,498.29979 97.835443,404.2373 140.13347,320.68692 c 14.87551,-29.38326 28.91317,-48.4692 54.2283,-73.73005 50.67113,-50.5625 110.8926,-78.31916 181.16962,-83.50284 90.25233,-6.65707 178.38132,29.17125 237.17664,96.42275 78.48901,89.77763 94.07695,211.76873 41.00556,320.90952 -16.99613,34.95237 -198.80649,347.44448 -208.3215,358.05896 -12.2967,13.71759 -25.22041,19.48819 -45.29486,20.22473 -9.82047,0.36031 -18.57297,-0.37107 -23.44157,-1.95889 z m 49.1579,-424.5584 c 26.3229,-7.29838 54.34388,-30.08781 66.04175,-53.71165 17.19017,-34.71559 14.50273,-75.82342 -7.06515,-108.07006 -37.21334,-55.63858 -115.48991,-62.89062 -162.97201,-15.09877 -20.90576,21.04213 -30.50312,44.59167 -30.50312,74.84715 0,25.81717 7.58382,47.27094 23.96769,67.80186 14.71224,18.43617 41.44902,33.45993 66.24257,37.22258 12.69868,1.92714 31.01008,0.69043 44.28827,-2.99111 z"
         id="path4"
         transform="matrix(0.51637375,0,0,0.51637375,1.5544703,-83.270853)" /></g></g></svg>
